<?xml version="1.0" standalone="no"?>
<!DOCTYPE svg PUBLIC "-//W3C//DTD SVG 20010904//EN"
 "http://www.w3.org/TR/2001/REC-SVG-20010904/DTD/svg10.dtd">
<svg version="1.0" xmlns="http://www.w3.org/2000/svg"
 width="1280.000000pt" height="640.000000pt" viewBox="0 0 1280.000000 640.000000"
 preserveAspectRatio="xMidYMid meet">
<metadata>
Created by potrace 1.15, written by Peter Selinger 2001-2017
</metadata>
<g transform="translate(0.000000,640.000000) scale(0.100000,-0.100000)"
fill="#000000" stroke="none">
<path d="M6790 5594 c-30 -2 -131 -8 -225 -14 -534 -34 -1071 -131 -1453 -261
-85 -29 -123 -47 -139 -67 -12 -14 -32 -27 -45 -27 -18 0 -62 -67 -263 -402
-133 -221 -249 -412 -258 -425 -10 -13 -39 -61 -65 -108 l-49 -84 -89 4 c-144
8 -457 3 -603 -10 -707 -59 -1534 -278 -2011 -532 -244 -130 -439 -295 -512
-433 -42 -80 -110 -138 -192 -164 -72 -23 -149 -97 -176 -168 -25 -68 -27
-213 -2 -250 13 -22 11 -35 -29 -174 l-44 -151 -12 61 c-27 132 -55 151 -223
151 l-110 0 0 105 c0 121 -2 123 -85 77 -63 -35 -95 -81 -95 -138 l0 -44 -43
0 c-47 0 -67 -13 -67 -45 0 -33 20 -45 77 -45 l53 0 0 -48 c0 -26 -11 -84 -24
-128 l-25 -79 0 108 -1 107 -30 0 -30 0 0 -275 0 -275 30 0 30 0 0 61 0 61 26
-32 c37 -44 75 -60 155 -67 l69 -6 1 29 c1 16 1 32 0 37 0 4 64 7 143 7 l143
0 -25 -106 c-15 -66 -21 -109 -15 -115 6 -6 47 19 109 67 54 42 141 105 192
141 l93 65 59 -7 59 -7 85 -113 c68 -91 91 -114 113 -117 26 -3 28 -7 40 -81
62 -371 335 -690 695 -813 302 -103 655 -57 919 118 165 110 319 295 388 467
l32 78 397 6 c218 4 757 12 1197 18 l800 11 250 -59 250 -59 885 6 885 5 -3
37 -3 37 358 3 c197 2 364 5 371 8 9 3 21 -15 36 -56 114 -309 388 -554 721
-644 114 -31 328 -38 448 -16 279 53 528 216 685 448 53 77 119 222 142 313
l23 85 164 0 163 0 0 -264 c0 -227 2 -267 16 -280 19 -20 29 -20 48 0 14 13
16 54 16 288 l0 272 28 27 c22 21 38 26 87 29 l60 3 3 58 c2 31 7 57 12 57 5
0 42 -5 82 -11 l74 -11 44 -83 c46 -86 56 -95 116 -95 24 0 33 -5 37 -21 7
-26 31 -20 35 8 2 15 13 23 36 27 18 4 41 15 51 27 18 19 26 20 472 13 l453
-7 0 66 0 67 -308 0 c-289 0 -310 1 -326 19 -14 16 -15 19 -2 24 8 3 17 24 21
46 l7 41 54 0 54 0 0 -35 0 -35 63 1 c93 0 155 13 180 37 13 12 34 22 48 22
64 0 125 73 116 139 -3 20 -7 102 -9 182 -3 132 -6 150 -28 194 -17 33 -37 54
-63 68 -34 18 -37 22 -37 63 0 58 -42 105 -125 139 l-60 24 -3 -97 -3 -97
-108 3 c-99 3 -243 -8 -296 -23 -17 -5 -25 2 -41 37 -17 34 -19 47 -10 61 9
15 -10 59 -111 255 -75 145 -128 236 -135 234 -28 -8 -32 -6 -35 8 -3 11 13
21 53 35 31 10 58 25 61 31 6 17 -23 77 -52 104 -18 17 -45 25 -105 33 l-82
11 -95 145 c-232 355 -459 625 -691 822 -51 43 -98 79 -104 79 -7 0 -44 -32
-84 -70 -79 -77 -122 -100 -184 -100 -51 0 -93 21 -199 100 -172 127 -541 477
-567 537 -18 40 -7 93 30 157 14 24 26 47 26 50 0 9 -248 130 -346 169 -430
169 -916 271 -1549 323 -167 14 -839 26 -965 18z m915 -635 c609 -67 1047
-199 1350 -406 120 -83 176 -191 182 -358 4 -90 2 -105 -19 -144 -37 -71 -56
-80 -198 -93 -135 -11 -1394 -3 -1592 11 -164 11 -148 -41 -148 498 0 291 4
461 10 473 30 56 67 57 415 19z m-790 1 c13 -11 15 -73 15 -487 l0 -474 -25
-24 -24 -25 -784 0 -784 0 95 475 c94 472 95 474 121 480 124 26 509 51 981
65 336 9 383 8 405 -10z m-1579 -560 l-80 -431 -110 3 -109 3 -63 135 c-34 74
-67 141 -73 148 -7 6 -23 12 -36 12 -44 0 -40 -35 14 -164 28 -65 51 -122 51
-127 0 -5 -28 -9 -62 -9 l-63 0 -21 49 -21 48 -54 -7 c-30 -4 -56 -6 -58 -4
-6 6 252 445 332 564 69 104 160 156 338 195 35 7 71 14 80 14 12 1 2 -70 -65
-429z m-4499 -1467 c-8 -15 -23 -54 -32 -86 -17 -58 -35 -76 -35 -33 0 35 20
87 47 124 29 39 41 36 20 -5z m-57 -188 c0 -14 -6 -25 -14 -25 -7 0 -20 -16
-27 -36 -13 -32 -15 -33 -25 -16 -10 15 -6 25 23 60 19 23 37 42 39 42 2 0 4
-11 4 -25z m11599 -307 c-1 -45 -18 -88 -56 -143 l-33 -46 -64 7 c-63 6 -66 8
-134 74 -66 64 -92 103 -77 118 11 11 99 19 233 21 l132 1 -1 -32z m-11902 -4
c38 -6 41 -13 49 -114 l7 -80 -95 0 -96 0 -26 71 c-14 38 -26 86 -26 105 l0
35 78 -6 c42 -3 91 -8 109 -11z m12104 -40 c11 -48 12 -174 1 -174 -4 0 -18
40 -30 88 -18 71 -20 95 -12 117 13 35 28 24 41 -31z"/>
</g>
</svg>
